<?xml version="1.0" encoding="UTF-8"?>
<svg version="1.1" xmlns="http://www.w3.org/2000/svg" width="464" height="300">
<path d="M0 0 C12.8427386 -0.0865859 25.62621219 0.12176252 38.45466614 0.71458435 C40.21583711 0.79261943 41.97702539 0.87026445 43.73822898 0.94755989 C48.51397931 1.1582726 53.28946749 1.37446126 58.06492674 1.59165776 C63.239119 1.82600076 68.41354215 2.05514165 73.5879364 2.28497314 C83.6957076 2.73475423 93.80325893 3.18930174 103.91073934 3.6455658 C115.68889736 4.17709688 127.46725575 4.70412222 139.24562045 5.23105002 C160.25612107 6.17117514 181.26641804 7.11577778 202.27661133 8.06274414 C222.65697319 8.98132243 243.03750233 9.89607576 263.41821289 10.80688477 C285.64053433 11.79999934 307.8627568 12.79527975 330.08481425 13.79428536 C332.45302905 13.90074649 334.82124392 14.00720626 337.18945885 14.11366463 C338.93710587 14.1922307 338.93710587 14.1922307 340.72005889 14.27238397 C348.92936063 14.64129791 357.13872925 15.00869974 365.34812355 15.37554741 C375.34278735 15.8222295 385.337336 16.27139325 395.33174578 16.72372466 C400.43027293 16.95441863 405.52884302 17.1840195 410.62755203 17.4106617 C415.29340678 17.61809657 419.95910789 17.82868837 424.62470611 18.0418129 C426.31326627 18.11839267 428.00187931 18.193817 429.69054756 18.26797514 C431.98477649 18.36890067 434.27877565 18.47403718 436.5727663 18.58022213 C438.4845341 18.66622878 438.4845341 18.66622878 440.43492347 18.75397295 C443.99500895 18.99965557 447.4752103 19.4499245 451 20 C451.5838895 76.38218866 450.248924 132.49881787 447.49348485 188.81242383 C447.00258879 198.86349141 446.53651267 208.91567482 446.0711652 218.96795213 C445.38214038 233.83524637 444.68480508 248.70214963 443.96431923 263.56795502 C443.88866284 265.12988996 443.81327749 266.69183805 443.73820877 268.25380135 C443.70319637 268.98131536 443.66818398 269.70882938 443.6321106 270.45838928 C443.58703511 271.39729067 443.58703511 271.39729067 443.541049 272.35515976 C443.08557809 281.57566792 442.54221025 290.78242574 442 300 C291.85 300 141.7 300 -13 300 C-13 266.45976163 -13 266.45976163 -12.24957275 250.41751099 C-12.16808613 248.65001181 -12.16808613 248.65001181 -12.08495331 246.84680557 C-12.00048321 245.01877207 -12.00048321 245.01877207 -11.91430664 243.15380859 C-11.79716373 240.51406037 -11.68052944 237.87429398 -11.5644989 235.23449707 C-11.28478188 228.89716183 -10.99829911 222.56015126 -10.70923907 216.22323601 C-10.37211254 208.82741165 -10.04173304 201.43129003 -9.71147233 194.03515644 C-9.12238352 180.84822357 -8.52694879 167.66158505 -7.92797852 154.47509766 C-7.34748743 141.69538372 -6.77223741 128.91544702 -6.20239258 116.13525391 C-5.57916091 102.15790087 -4.95324744 88.1806731 -4.32248396 74.20365775 C-4.25534256 72.71583599 -4.18820168 71.22801421 -4.12106133 69.74019241 C-4.08803271 69.00838764 -4.0550041 68.27658287 -4.02097462 67.52260219 C-3.78856362 62.36956727 -3.55799599 57.21645174 -3.32808113 52.0633049 C-3.01954871 45.15014344 -2.70632876 38.23720746 -2.389925 31.32440186 C-2.27434788 28.78431514 -2.16025054 26.24416061 -2.04771042 23.70393753 C-1.89440159 20.24907453 -1.73581637 16.79449413 -1.57582092 13.3399353 C-1.53204238 12.32568116 -1.48826385 11.31142701 -1.44315869 10.26643789 C-1.39936689 9.344799 -1.3555751 8.4231601 -1.31045628 7.47359276 C-1.27438284 6.67633164 -1.23830941 5.87907052 -1.20114285 5.05764997 C-1 3 -1 3 0 0 Z " fill="#C4A79A" transform="translate(13,0)"/>
<path d="M0 0 C3.63 0 7.26 0 11 0 C7 2 7 2 4 2 C1.69155199 8.34823202 1.80181717 14.29481414 2 21 C0 19 0 19 -0.22705078 17.02880859 C-0.21657715 16.24328613 -0.20610352 15.45776367 -0.1953125 14.6484375 C-0.18886719 13.79765625 -0.18242187 12.946875 -0.17578125 12.0703125 C-0.15902344 11.18085938 -0.14226563 10.29140625 -0.125 9.375 C-0.11597656 8.4778125 -0.10695313 7.580625 -0.09765625 6.65625 C-0.07405132 4.43738678 -0.03817962 2.2186603 0 0 Z " fill="#12467E" transform="translate(22,0)"/>
<path d="M0 0 C0.99 0.33 1.98 0.66 3 1 C3 3.64 3 6.28 3 9 C2.34 9 1.68 9 1 9 C0.67 6.03 0.34 3.06 0 0 Z " fill="#135392" transform="translate(34,88)"/>
</svg>
