<?xml version="1.0" encoding="UTF-8"?>
<svg version="1.1" xmlns="http://www.w3.org/2000/svg" width="464" height="300">
<path d="M0 0 C0.88266153 0.00448096 1.76532306 0.00896191 2.67473191 0.01357865 C3.6086118 0.01646276 4.54249169 0.01934686 5.50467098 0.02231836 C17.60703613 0.10388094 29.695553 0.60823208 41.78697211 1.09683871 C45.32838383 1.23900764 48.86998519 1.37630692 52.41156358 1.51425004 C58.54652632 1.75384618 64.68136571 1.99641094 70.81612939 2.24104905 C79.79874598 2.59923448 88.78154693 2.95261802 97.7643946 3.3049548 C112.49483136 3.88284884 127.22512391 4.46433698 141.95532578 5.04818559 C155.99106925 5.60449931 170.02686439 6.15947214 184.06274766 6.71224809 C184.91633623 6.74586515 185.7699248 6.77948221 186.64937969 6.81411797 C191.80235039 7.01704212 196.95532373 7.21989921 202.10829815 7.4227289 C208.93197501 7.69132363 215.75564971 7.95997347 222.5793236 8.22864348 C224.27397847 8.2953671 225.96863344 8.36208803 227.66328852 8.42880625 C239.41081294 8.8913193 251.15830168 9.35472937 262.90576576 9.81877249 C293.38034529 11.02246503 323.85506001 12.22170606 354.3310582 13.3890059 C355.57050403 13.4365031 356.80994986 13.4840003 358.08695465 13.53293681 C369.45492855 13.96843735 380.8229482 14.40268575 392.19113082 14.83270574 C396.14634984 14.98249283 400.10153521 15.13315631 404.05671495 15.28397679 C406.65356156 15.38264869 409.25045419 15.48002731 411.84735268 15.57732224 C423.20962128 16.00815666 434.56434494 16.55128739 445.91943711 17.14095902 C446.16843109 41.69175645 445.38513412 66.02890882 444.29443711 90.57845902 C441.30888744 160.42460778 438.6411356 230.28403123 435.91943711 300.14095902 C286.09943711 300.14095902 136.27943711 300.14095902 -18.08056289 300.14095902 C-18.08056289 291.27890123 -18.01866466 282.48894816 -17.66968948 273.64442277 C-17.62547597 272.46935396 -17.58126246 271.29428516 -17.53570914 270.08360821 C-17.41415578 266.86764327 -17.29024173 263.65178006 -17.16524905 260.4359473 C-17.03037823 256.95087072 -16.89861452 253.46567634 -16.76641494 249.9804976 C-16.5077403 243.17470213 -16.24613061 236.36902262 -15.98334552 229.56338473 C-15.76992045 224.03553546 -15.55739645 218.50765225 -15.34549934 212.9797442 C-14.67889495 195.59191026 -14.00909586 178.20420224 -13.33689522 160.81658379 C-12.80647551 147.09310144 -12.28103824 133.36943342 -11.7578562 119.64567342 C-11.22020204 105.54366011 -10.67900164 91.44178689 -10.13401389 77.34005505 C-9.82825571 69.42665821 -9.52396156 61.51321133 -9.2234481 53.59961343 C-8.96801173 46.87389347 -8.70928233 40.1483104 -8.44619656 33.42288514 C-8.31200048 29.98992434 -8.17938445 26.55692103 -8.0508979 23.12374139 C-7.91114605 19.41120967 -7.76556584 15.69895281 -7.61841995 11.98670793 C-7.57853236 10.89025018 -7.53864477 9.79379243 -7.49754846 8.66410869 C-7.45724006 7.67798369 -7.41693166 6.69185869 -7.37540179 5.67585111 C-7.34236613 4.81805749 -7.30933046 3.96026388 -7.27529371 3.07647651 C-6.84500853 -1.20032204 -3.58236616 0.01013721 0 0 Z " fill="#5C3C70" transform="translate(18.08056288957596,-0.1409590244293213)"/>
</svg>
